<svg id="Capa_1" enable-background="new 0 0 496.375 496.375" height="512" viewBox="0 0 496.375 496.375" width="512" xmlns="http://www.w3.org/2000/svg"><g><path d="m460.593 416.634-420.394-36.78c-4.126-.361-7.179-3.999-6.818-8.125l27.628-315.794c.361-4.126 3.999-7.179 8.125-6.818l420.394 36.78c4.126.361 7.179 3.999 6.818 8.125l-27.628 315.794c-.361 4.126-3.999 7.179-8.125 6.818z" fill="#725fee"/><path d="m429.5 447.287h-422c-4.142 0-7.5-3.358-7.5-7.5v-317c0-4.142 3.358-7.5 7.5-7.5h422c4.142 0 7.5 3.358 7.5 7.5v317c0 4.142-3.358 7.5-7.5 7.5z" fill="#bdf2ff"/><path d="m30 145.287h377v272h-377z" fill="#fff"/><path d="m377 324.377v62.91h-30l-30-107z" fill="#6241ea"/><path d="m90 279.377-30 45v62.91h287s.333-108.057 0-107.91z" fill="#725fee"/><path d="m377 175.287v149.09c-11.95-.34-22.62-5.73-30-14.09l-45-67.5 45-67.5z" fill="#28a6fa"/><path d="m347 175.287v135c-7.85 8.65-19.33 14.11-32.13 14.11-12.79 0-24.27-5.46-32.12-14.11-7.85 8.65-19.33 14.11-32.13 14.11-12.79 0-24.27-5.46-32.12-14.11-7.85 8.65-19.33 14.11-32.12 14.11-12.8 0-24.28-5.46-32.13-14.11-7.85 8.65-19.33 14.11-32.12 14.11-12.8 0-24.28-5.46-32.13-14.11-7.38 8.36-18.05 13.75-30 14.09v-149.09z" fill="#24c0ff"/><path d="m218.5 205.287v75c20.711 0 37.5-16.789 37.5-37.5s-16.789-37.5-37.5-37.5z" fill="#ffe09e"/><path d="m226 242.787c0-20.711-3.358-37.5-7.5-37.5-20.711 0-37.5 16.789-37.5 37.5s16.789 37.5 37.5 37.5c4.142 0 7.5-16.789 7.5-37.5z" fill="#fec"/></g></svg>