<svg xmlns="http://www.w3.org/2000/svg" width="250" height="250" viewBox="0 0 250 250">
  <defs>
    <style>
      .cls-1 {
        fill: #ff5501;
        fill-rule: evenodd;
      }
    </style>
  </defs>
  <path id="Color_Fill_1" data-name="Color Fill 1" class="cls-1" d="M162,224c0.988-15.23,10.886-19.106,16-30,2.373-5.055,1.25-12.829,1-19-0.333,0-.667,1-1,1,0,0.667-2,4.333-2,5,1.043,3.244-18.623,27.41-37,17-3.806-2.156-7.877-7.439-10-11,0.909-1.084,3.352-.768,5-1,2.886-.886,2-1,5-2,7.754-5.773,13.525-21.97,31-15v-2c-0.453-2.344-11.133-11.833-9-12,11.868-12.558,14.6-44.677,9-64-0.333,0-.667,1-1,1-1.232,21.087-30.223,56.373-31,57-3.95,3.189-8.442,10.717-14,13-10.382-11.024-22.923-24.3-27-31-5.138-8.441-8.971-13.732-11-20-2.016-6.229-4.3-15.065-7-19,0,0.667-.658,1.219-1,2-1.213,3.592-1.28,6.87-2,12-3.24,23.1,4.754,31.892,11,50-2.619,2.8-7.106,7.742-8,13h1c15.166-8.424,27.827,15.116,33,16,3.333,1,4.289,1.078,7,2-11.446,24.421-44.334,10.984-49-11-0.333,0-.667-1-1-1a40.287,40.287,0,0,0,0,5c0,3.939-1.1,11,1,14,8.221,11.719,16.536,18.237,16,30,3.089,0,7.134.339,9,1-0.078.878-2,.667-2,1H84c-4.989-8.9-14.378-19.282-24-22-2-29.456-28.9-39.961-30-72,0.333,0,.667,1,1,1,7.388,10.286,25.384,15.494,37,25h0c-3.19-6.425-4.069-20.8-5-31-3.353-36.748,18.39-78.367,43-88,0,0.667-2.156,4.111-2,4-3.2,5.376-4.639,6.385-7,11a52.505,52.505,0,0,0-4,15c-2.1,31.9,17.638,35.513,28,48,3.3,3.972,5.157,10.164,5,18,2.267-5.289,2.633-9.567,2-13-1.349-3.99-2.566-8.129-6-12l-8-6c-6.592-6.616-10.953-15.79-12-27-2.043-21.883,19.981-34.7,17-54-0.969-6.273-6-10.278-9-15,0.667,0,3.333,1,4,1,4.011,1.61,4.074,1.18,7,3,8.233,5.121,16.069,15.662,20,25,3.587,8.52,5.41,26.283,11,27,1.073,0.752,3.023.624,5-1,1.584-2.721,2.048-5.544,5-7,0.856,2.745,3,4.667,3,5,21.488,20.648,29.085,63.022,14,97,2.6,0.228,4.333-2,5-2,14.306-10.777,29.687-13.969,35-25,0.333,0-.333,1,0,1,0,3,.569,5.317,0,9-0.861,5.788-4.545,12.123-7,17-9.239,15.195-18.948,25.117-23,46-13.94,4.2-21.946,18.839-24,22-1.481-.106-11,0.333-11,0,0.667,0,.333-1,1-1C156.295,224.123,159.467,224.106,162,224ZM90,186c-1.167.611-1.844-.089-2,2,5.176,3.634,7.243,7.353,16,8a18.38,18.38,0,0,0,5-3C104.056,189.362,100.748,185.455,90,186Zm71-1c-1.742,1.064-5.161.725-8,1-4.02.389-10.357,4.588-13,7v1c0.667,0,2.333,1,3,1,2.069,1.664,5.017.935,10,0,4.743-2.684,7.335-3.97,8-8C161.236,187,161.333,185,161,185Zm-44,20c0.1-.569,1.333-2,2-2-2.638,7.328-3.776,16.578-5,25a37.2,37.2,0,0,1,9,8c-7.418,3.671-18.421,7.82-32,6-10.219-1.37-16.5-12.456-35-4,0-.667,1-2.333,1-3,4.424-4.652,5.715-6.014,9-7,10.888-1.859,34.15,8.939,44-5C112.572,219.116,113.026,210.081,117,205Zm14-2c3.556,3.852,5.171,14.211,7,20,3.293,4.037,10.925,6.635,17,8,15.924,3.577,28.578-11.223,39,8-1.35.114-2.333-1-3-1-3.056-3.049-9.143-4.822-15-3-4.182,1.3-11.447,5.854-14,7-8.457,3.8-26.772.526-35-7,2.046-2.36,4.375-3.5,8-9C134.776,223.425,131.55,209.551,131,203Z"/>
</svg>
