<svg id="Capa_1" enable-background="new 0 0 497 497" height="512" viewBox="0 0 497 497" width="512" xmlns="http://www.w3.org/2000/svg"><g><path d="m467 7.5v397.5s-317 92-422 92c-24.85 0-45-20.15-45-45v-414.5c0-4.142 3.358-7.5 7.5-7.5h52.5v-22.5c0-4.142 3.358-7.5 7.5-7.5h392c4.142 0 7.5 3.358 7.5 7.5z" fill="#8ae7ff"/><path d="m60 60v392c0 8.27-6.73 15-15 15s-15-6.73-15-15v-392z" fill="#47d4ff"/><path d="m467 30-45 467h30c24.853 0 45-20.147 45-45v-414.5c0-4.142-3.358-7.5-7.5-7.5z" fill="#bdf2ff"/><path d="m90 30v422c0 24.85-20.15 45-45 45h377c24.85 0 45-20.15 45-45v-422z" fill="#e5faff"/><path d="m278.5 287v150h-30l-30-75 30-75z" fill="#ff443b"/><path d="m150 287h98.5v150h-98.5z" fill="#ff6333"/><path d="m437 182v30h-30l-30-90z" fill="#5c2bc8"/><path d="m407 122v90h-257v-30z" fill="#6241ea"/><path d="m437 90v92h-30l-30-46 30-46z" fill="#725fee"/><path d="m150 90h257v92h-257z" fill="#8a7af1"/><g fill="#8ae7ff"><path d="m437 294.5h-128.5c-4.143 0-7.5-3.358-7.5-7.5s3.357-7.5 7.5-7.5h128.5c4.143 0 7.5 3.358 7.5 7.5s-3.357 7.5-7.5 7.5z"/><path d="m437 324.5h-128.5c-4.143 0-7.5-3.358-7.5-7.5s3.357-7.5 7.5-7.5h128.5c4.143 0 7.5 3.358 7.5 7.5s-3.357 7.5-7.5 7.5z"/><path d="m437 249.5h-287c-4.142 0-7.5-3.358-7.5-7.5s3.358-7.5 7.5-7.5h287c4.143 0 7.5 3.358 7.5 7.5s-3.357 7.5-7.5 7.5z"/><path d="m437 384.5h-128.5c-4.143 0-7.5-3.358-7.5-7.5s3.357-7.5 7.5-7.5h128.5c4.143 0 7.5 3.358 7.5 7.5s-3.357 7.5-7.5 7.5z"/><path d="m437 354.5h-128.5c-4.143 0-7.5-3.358-7.5-7.5s3.357-7.5 7.5-7.5h128.5c4.143 0 7.5 3.358 7.5 7.5s-3.357 7.5-7.5 7.5z"/><path d="m437 414.5h-128.5c-4.143 0-7.5-3.358-7.5-7.5s3.357-7.5 7.5-7.5h128.5c4.143 0 7.5 3.358 7.5 7.5s-3.357 7.5-7.5 7.5z"/><path d="m437 444.5h-128.5c-4.143 0-7.5-3.358-7.5-7.5s3.357-7.5 7.5-7.5h128.5c4.143 0 7.5 3.358 7.5 7.5s-3.357 7.5-7.5 7.5z"/></g></g></svg>