<svg id="Capa_1" enable-background="new 0 0 496.987 496.987" height="512" viewBox="0 0 496.987 496.987" width="512" xmlns="http://www.w3.org/2000/svg"><g><path d="m68.239 429.175-63.631 63.631c4.481 4.31 10.972 5.286 16.372 2.937.003.003 22.217-9.684 49.722-21.68z" fill="#3857bc"/><path d="m16.253 491.032 43.026-28.39 8.961-33.467-45.308-2.882-21.686 49.716c-2.378 5.493-1.341 12.11 3.145 16.597.07.07.146.132.217.201 2.413 2.08 7.043 1.251 11.645-1.775z" fill="#3a6fd8"/><path d="m174.082 428.967 47.741-153.793-162.545 187.468 11.424 11.424c44.357-19.354 102.474-44.703 103.38-45.099z" fill="#ffe09e"/><path d="m221.823 275.174-153.8 47.734-45.093 103.386 36.348 36.348 113.788-75.082z" fill="#fec"/><path d="m276.082 178.488-103.016 209.072v33.64c0 2.686.353 5.29 1.015 7.767.007.007 176.246-176.232 176.246-176.232z" fill="#ffbc2b"/><path d="m244.262 146.669-176.238 176.237c2.476.661 5.078 1.014 7.763 1.014h33.64v33.64c0 16.569 13.432 30 30 30h33.64l5.272-5.262 150.776-150.776z" fill="#ffcf66"/><path d="m350.31 252.739-21.213-21.214v-127.279l63.639 106.066z" fill="#81a0a8"/><path d="m329.097 231.525-84.853-84.852 42.426-42.427 106.066 63.64z" fill="#93b7c0"/><path d="m392.736 210.312-21.213-21.213-21.213-106.066 84.853 84.853z" fill="#93b7c0"/><path d="m290.31 95.459h120v60h-120z" fill="#acd5df" transform="matrix(.707 .707 -.707 .707 191.317 -210.96)"/><path d="m488.196 72.426-21.213-21.213-74.246 74.246 42.426 42.426 53.033-53.033c11.715-11.715 11.715-30.71 0-42.426z" fill="#e33a38"/><path d="m466.982 51.213-42.426-42.426c-11.716-11.716-30.711-11.716-42.426 0l-53.033 53.033 84.853 84.853 53.033-53.033c11.715-11.716 11.715-30.711-.001-42.427z" fill="#ff443b"/><path d="m445.769 157.279-21.213-21.213-21.213 21.213 21.213 21.213c5.858 5.858 15.355 5.858 21.213 0s5.858-15.355 0-21.213z" fill="#acd5df"/><path d="m424.556 157.279c5.858-5.858 5.858-15.355 0-21.213l-84.853-84.853c-5.858-5.858-15.355-5.858-21.213 0s-5.858 15.355 0 21.213l84.853 84.853c5.858 5.858 15.355 5.858 21.213 0z" fill="#bdf2ff"/><path d="m360.916 242.132-21.213-21.213-21.213 21.213 21.213 21.213c5.858 5.858 15.355 5.858 21.213 0s5.858-15.355 0-21.213z" fill="#acd5df"/><path d="m339.703 242.132c5.858-5.858 5.858-15.355 0-21.213l-84.853-84.853c-5.858-5.858-15.355-5.858-21.213 0s-5.858 15.355 0 21.213l84.853 84.853c5.858 5.858 15.355 5.858 21.213 0z" fill="#bdf2ff"/></g></svg>