<svg id="Capa_1" enable-background="new 0 0 497 497" height="512" viewBox="0 0 497 497" width="512" xmlns="http://www.w3.org/2000/svg"><g><circle cx="248.5" cy="248.5" fill="#bdf2ff" r="158.5"/><path d="m290.677 127.091 55.447 106.409h30c-5.765-49.572-39.736-90.531-85.447-106.409z" fill="#3857bc"/><path d="m290.677 127.091c2.032 4.527 4 9.565 5.876 15.196 8.327 24.981 13.384 56.931 14.529 91.213h35.041c-3.739-49.572-25.783-90.531-55.446-106.409z" fill="#3a6fd8"/><path d="m290.677 369.909 55.447-106.409h30c-5.765 49.571-39.736 90.531-85.447 106.409z" fill="#3857bc"/><g fill="#3a6fd8"><path d="m290.677 369.909c2.032-4.527 4-9.565 5.876-15.196 8.327-24.981 13.384-56.931 14.529-91.213h35.041c-3.739 49.571-25.783 90.531-55.446 106.409z"/><path d="m248.5 120c-2.82 0-11.668 8.001-19.593 31.773-7.364 22.094-11.866 50.693-12.967 81.727h65.121c-1.101-31.033-5.603-59.633-12.967-81.727-7.925-23.773-16.774-31.773-19.594-31.773z"/><path d="m268.093 345.226c7.364-22.093 11.866-50.693 12.967-81.727h-65.12c1.101 31.033 5.603 59.633 12.967 81.727 7.924 23.773 16.773 31.774 19.593 31.774s11.669-8.001 19.593-31.774z"/><path d="m185.917 233.5c1.145-34.282 6.202-66.232 14.529-91.213 1.877-5.631 3.845-10.669 5.876-15.196-45.711 15.878-79.682 56.838-85.447 106.409z"/><path d="m200.447 354.713c-8.327-24.981-13.384-56.931-14.529-91.213h-65.041c5.764 49.571 39.735 90.531 85.447 106.409-2.033-4.527-4.001-9.565-5.877-15.196z"/></g><path d="m248.5 0c-137.243 0-248.5 111.257-248.5 248.5s111.257 248.5 248.5 248.5 248.5-111.257 248.5-248.5-111.258-248.5-248.5-248.5zm15 466.478v-22.689c0-4.142-3.358-7.5-7.5-7.5h-15c-4.142 0-7.5 3.358-7.5 7.5v22.689c-108.718-7.374-195.605-94.26-202.978-202.978h22.689c4.142 0 7.5-3.358 7.5-7.5v-15c0-4.142-3.358-7.5-7.5-7.5h-22.689c7.373-108.718 94.26-195.605 202.978-202.978v22.689c0 4.142 3.358 7.5 7.5 7.5h15c4.142 0 7.5-3.358 7.5-7.5v-22.689c108.718 7.373 195.604 94.26 202.978 202.978h-22.689c-4.142 0-7.5 3.358-7.5 7.5v15c0 4.142 3.358 7.5 7.5 7.5h22.689c-7.374 108.718-94.26 195.604-202.978 202.978z" fill="#47d4ff"/></g></svg>