<svg id="Capa_1" enable-background="new 0 0 497 497" height="512" viewBox="0 0 497 497" width="512" xmlns="http://www.w3.org/2000/svg"><g><path d="m86.834 90-56.834 60h86.834v-52.5c0-4.142-3.358-7.5-7.5-7.5z" fill="#28a6fa"/><path d="m30 97.5v52.5h56.834v-60h-49.334c-4.142 0-7.5 3.358-7.5 7.5z" fill="#24c0ff"/><path d="m467 120h-30v302h30c16.569 0 30-13.431 30-30v-242c0-16.569-13.431-30-30-30z" fill="#3a6fd8"/><path d="m437 120h-407c-16.569 0-30 13.431-30 30v242c0 16.569 13.431 30 30 30h407c16.569 0 30-13.431 30-30v-242c0-16.569-13.431-30-30-30z" fill="#3b88f5"/><path d="m320.235 61.376c-4.974-9.718-15.074-16.376-26.735-16.376h-33.684v165.616h136.619z" fill="#5c2bc8"/><path d="m286.552 61.376c-4.974-9.718-15.074-16.376-26.736-16.376h-56.316c-11.662 0-21.761 6.658-26.725 16.376-.01 0-76.21 149.24-76.21 149.24h262.188z" fill="#6241ea"/><circle cx="248.5" cy="286" fill="#bdf2ff" r="166"/><circle cx="248.5" cy="286" fill="#5c2bc8" r="136"/><path d="m142.5 286c0 29.81 12.31 56.741 32.119 76h147.763c19.808-19.259 32.119-46.19 32.119-76s-12.31-56.741-32.119-76h-147.763c-19.809 19.259-32.119 46.19-32.119 76z" fill="#5515a6"/><path d="m248.5 240v92c25.405 0 46-20.595 46-46s-20.595-46-46-46z" fill="#28a6fa"/><path d="m264.5 286c0-25.405-7.163-46-16-46-25.405 0-46 20.595-46 46s20.595 46 46 46c8.836 0 16-20.595 16-46z" fill="#24c0ff"/></g></svg>